HIERARCHY
ROOT Hips
{
	OFFSET 0.00 0.00 0.00
	CHANNELS 6 Xposition Yposition Zposition Xrotation Yrotation Zrotation
	JOINT Spine
	{
		OFFSET 0.00000 0.84964 1.27446
		CHANNELS 3 Xrotation Yrotation Zrotation
		JOINT Spine1
		{
			OFFSET 0.00000 0.29508 1.67346
			CHANNELS 3 Xrotation Yrotation Zrotation
			JOINT Spine2
			{
				OFFSET 0.00000 0.14810 1.69281
				CHANNELS 3 Xrotation Yrotation Zrotation
				JOINT Spine3
				{
					OFFSET 0.00000 0.00000 1.69928
					CHANNELS 3 Xrotation Yrotation Zrotation
					JOINT Neck
					{
						OFFSET 0.00000 -0.63723 4.46061
						CHANNELS 3 Xrotation Yrotation Zrotation
						JOINT Head
						{
							OFFSET 0.00000 -0.40573 2.30101
							CHANNELS 3 Xrotation Yrotation Zrotation
							End Site
							{
								OFFSET 0.00000 0.00000 2.75071
							}
						}
					}
					JOINT RightShoulder
					{
						OFFSET -0.72014 -1.20022 3.88874
						CHANNELS 3 Xrotation Yrotation Zrotation
						JOINT RightArm
						{
							OFFSET -3.57668 0.00000 0.00000
							CHANNELS 3 Xrotation Yrotation Zrotation
							JOINT RightForeArm
							{
								OFFSET -5.92485 0.00000 0.00000
								CHANNELS 3 Xrotation Yrotation Zrotation
								JOINT RightHand
								{
									OFFSET -6.63013 0.00000 0.00000
									CHANNELS 3 Xrotation Yrotation Zrotation
									JOINT RightHandEnd
									{
										OFFSET -1.65321 0.00000 0.00000
										CHANNELS 3 Xrotation Yrotation Zrotation
										End Site
										{
											OFFSET -1.65321 0.00000 0.00000
										}
									}
									JOINT RightHandThumb1
									{
										OFFSET -0.66129 -1.10214 -0.44086
										CHANNELS 3 Yrotation Xrotation Zrotation
										End Site
										{
											OFFSET -1.59688 -0.42788 0.00000
										}
									}
								}
							}
						}
					}
					JOINT LeftShoulder
					{
						OFFSET 0.72014 -1.20022 3.88874
						CHANNELS 3 Xrotation Yrotation Zrotation
						JOINT LeftArm
						{
							OFFSET 3.57668 0.00000 0.00000
							CHANNELS 3 Xrotation Yrotation Zrotation
							JOINT LeftForeArm
							{
								OFFSET 5.92485 0.00000 0.00000
								CHANNELS 3 Xrotation Yrotation Zrotation
								JOINT LeftHand
								{
									OFFSET 6.63013 0.00000 0.00000
									CHANNELS 3 Xrotation Yrotation Zrotation
									JOINT LeftHandEnd
									{
										OFFSET 1.65321 0.00000 0.00000
										CHANNELS 3 Xrotation Yrotation Zrotation
										End Site
										{
											OFFSET 1.65321 0.00000 0.00000
										}
									}
									JOINT LeftHandThumb1
									{
										OFFSET 0.66129 -1.10214 -0.44086
										CHANNELS 3 Yrotation Xrotation Zrotation
										End Site
										{
											OFFSET 1.59688 -0.42788 0.00000
										}
									}
								}
							}
						}
					}
				}
			}
		}
	}
	JOINT RightUpLeg
	{
		OFFSET -2.13640 0.00000 -0.62412
		CHANNELS 3 Xrotation Yrotation Zrotation
		JOINT RightLeg
		{
			OFFSET 0.00000 0.00000 -11.49360
			CHANNELS 3 Xrotation Yrotation Zrotation
			JOINT RightFoot
			{
				OFFSET 0.00000 0.00000 -8.79036
				CHANNELS 3 Xrotation Yrotation Zrotation
				JOINT RightToeBase
				{
					OFFSET 0.00000 -3.94625 -1.43632
					CHANNELS 3 Xrotation Yrotation Zrotation
					End Site
					{
						OFFSET 0.00000 -1.72833 -0.00000
					}
				}
			}
		}
	}
	JOINT LeftUpLeg
	{
		OFFSET 2.13640 0.00000 -0.62412
		CHANNELS 3 Xrotation Yrotation Zrotation
		JOINT LeftLeg
		{
			OFFSET 0.00000 0.00000 -11.49360
			CHANNELS 3 Xrotation Yrotation Zrotation
			JOINT LeftFoot
			{
				OFFSET 0.00000 0.00000 -8.79036
				CHANNELS 3 Xrotation Yrotation Zrotation
				JOINT LeftToeBase
				{
					OFFSET 0.00000 -3.94625 -1.43632
					CHANNELS 3 Xrotation Yrotation Zrotation
					End Site
					{
						OFFSET 0.00000 -1.72833 -0.00000
					}
				}
			}
		}
	}
}
MOTION
Frames: 16
Frame Time: 0.00333
 0.8051 -1.8024 23.6170 0.5066 -1.5836 -179.5771 -2.3246 -6.0185 0.3712 -0.7937 -3.4327 -0.3077 6.7409 1.8121 11.9783 0.2872 8.5020 -1.0204 -8.6421 0.9541 -1.9999 1.9355 -0.9956 -13.1064 -4.7512 -0.5409 12.1971 -37.6808 -31.9542 -4.1012 -0.0000 0.0001 87.0782 41.3641 65.5672 -1.4930 -0.0000 0.0000 -0.0000 0.0000 -0.0000 -0.0000 -0.8751 20.0525 0.5931 7.4105 47.8717 -4.6861 -0.0000 -0.0000 -20.6580 -3.5299 -20.8342 14.0071 -0.0000 -0.0000 -0.0000 -0.0000 -0.0000 0.0000 4.2159 0.9001 -50.0368 -4.1447 0.0000 -0.0000 19.0048 -14.8929 42.2356 -29.6903 0.0000 -0.0000 4.0090 -5.2814 17.5658 -6.0015 0.0000 -0.0000 -0.8564 -4.6527 -22.1057 -4.7415 0.0000 -0.0000
 0.7947 -1.7902 23.6181 0.5460 -1.5338 -179.7600 -2.3490 -6.0704 0.3588 -0.8013 -3.4485 -0.3063 6.7418 1.8640 12.0439 0.3332 8.5684 -1.0469 -8.6277 0.8930 -2.0239 1.9783 -0.9997 -13.1155 -3.9643 -0.5625 12.2429 -34.9481 -29.2340 -2.4864 -0.0000 0.0001 86.8127 48.6824 67.3990 -4.3664 0.0000 -0.0000 -0.0000 0.0000 0.0000 0.0000 -0.8773 20.0190 0.7915 8.3182 47.6810 -5.3655 -0.0000 -0.0000 -20.1959 -3.5115 -20.8387 14.1080 -0.0000 0.0000 -0.0000 0.0000 0.0000 0.0000 4.2679 0.9905 -49.9301 -4.1465 0.0000 -0.0000 19.0373 -14.8999 42.3105 -29.6860 0.0000 -0.0000 4.0769 -5.2113 17.5859 -5.8917 0.0000 -0.0000 -0.9448 -4.6424 -21.9495 -4.7310 0.0000 -0.0000
 0.7833 -1.7788 23.6189 0.5483 -1.4898 -179.9597 -2.4415 -6.1361 0.3431 -0.8148 -3.4683 -0.3095 6.7830 1.9214 12.0980 0.3954 8.6163 -1.0690 -8.6341 0.8622 -2.0420 2.0352 -0.9853 -13.1245 -3.1807 -0.5923 12.2839 -32.2105 -26.2923 -0.9725 -0.0000 0.0001 86.5580 57.5225 69.1798 -8.3903 0.0000 0.0000 -0.0000 0.0000 0.0000 -0.0000 -0.8849 19.9661 0.9724 9.2102 47.5711 -6.0158 -0.0000 -0.0000 -19.7427 -3.5022 -20.8359 14.1986 -0.0000 -0.0000 0.0000 -0.0000 0.0000 0.0000 4.2763 1.0796 -49.8172 -4.1470 0.0000 -0.0000 19.0776 -14.9021 42.3935 -29.6817 0.0000 -0.0000 4.1122 -5.1423 17.6062 -5.7936 0.0000 -0.0000 -1.0279 -4.6353 -21.7776 -4.7205 0.0000 -0.0000
 0.7710 -1.7680 23.6196 0.5429 -1.4480 179.8312 -2.5642 -6.2028 0.3246 -0.8392 -3.4873 -0.3141 6.8609 1.9629 12.1287 0.4722 8.6487 -1.0908 -8.6570 0.8675 -2.0507 2.1040 -0.9510 -13.1316 -2.4389 -0.6194 12.3151 -29.5522 -23.2523 0.3650 -0.0000 0.0001 86.4036 67.3942 70.6583 -13.4075 -0.0000 0.0000 -0.0000 -0.0000 -0.0000 0.0000 -0.8968 19.8996 1.1375 10.0553 47.5501 -6.6058 -0.0000 -0.0000 -19.3143 -3.4974 -20.8353 14.2763 0.0000 0.0000 0.0000 0.0000 -0.0000 0.0000 4.2739 1.1703 -49.7007 -4.1481 0.0000 -0.0000 19.1238 -14.9036 42.4812 -29.6785 0.0000 -0.0000 4.1479 -5.0694 17.6286 -5.7154 0.0000 -0.0000 -1.1011 -4.6309 -21.5977 -4.7103 0.0000 -0.0000
 0.7577 -1.7580 23.6199 0.5311 -1.4084 179.6199 -2.7136 -6.2638 0.3035 -0.8740 -3.5024 -0.3203 6.9725 1.9809 12.1243 0.5610 8.6612 -1.1114 -8.6942 0.9136 -2.0494 2.1822 -0.8970 -13.1354 -1.7834 -0.6348 12.3305 -27.0140 -20.2509 1.4827 -0.0000 0.0001 86.4195 77.4093 71.6330 -18.8243 0.0000 0.0000 -0.0000 0.0000 -0.0000 -0.0000 -0.9134 19.8317 1.2908 10.8334 47.6172 -7.1168 -0.0000 -0.0000 -18.9228 -3.4945 -20.8473 14.3387 0.0000 0.0000 0.0000 0.0000 0.0000 0.0000 4.2626 1.2614 -49.5838 -4.1502 0.0000 -0.0000 19.1743 -14.9053 42.5701 -29.6771 0.0000 -0.0000 4.1846 -4.9931 17.6535 -5.6599 0.0000 -0.0000 -1.1630 -4.6290 -21.4176 -4.6998 0.0000 -0.0000
 0.7437 -1.7488 23.6200 0.5140 -1.3714 179.4128 -2.8848 -6.3127 0.2803 -0.9177 -3.5113 -0.3282 7.1121 1.9700 12.0770 0.6584 8.6484 -1.1303 -8.7433 1.0040 -2.0380 2.2680 -0.8243 -13.1356 -1.2547 -0.6306 12.3267 -24.6226 -17.4270 2.3581 -0.0000 0.0001 86.6388 86.4546 72.0147 -23.7438 -0.0000 0.0000 -0.0000 0.0000 0.0000 -0.0000 -0.9361 19.7740 1.4383 11.5332 47.7706 -7.5401 -0.0000 -0.0000 -18.5754 -3.4920 -20.8813 14.3842 0.0000 -0.0000 0.0000 -0.0000 -0.0000 0.0000 4.2443 1.3516 -49.4692 -4.1541 0.0000 -0.0000 19.2277 -14.9080 42.6569 -29.6777 0.0000 -0.0000 4.2223 -4.9138 17.6817 -5.6285 0.0000 -0.0000 -1.2128 -4.6293 -21.2441 -4.6886 0.0000 -0.0000
 0.7289 -1.7405 23.6198 0.4928 -1.3367 179.2149 -3.0718 -6.3434 0.2561 -0.9683 -3.5120 -0.3376 7.2722 1.9257 11.9826 0.7606 8.6087 -1.1462 -8.8016 1.1377 -2.0186 2.3601 -0.7333 -13.1322 -0.8807 -0.6089 12.3006 -22.4156 -14.9063 2.9917 -0.0000 0.0001 87.0506 93.4877 71.8544 -27.2554 0.0000 -0.0000 -0.0000 0.0000 -0.0000 0.0000 -0.9687 19.7368 1.5881 12.1526 48.0045 -7.8747 -0.0000 -0.0000 -18.2769 -3.4891 -20.9453 14.4148 -0.0000 0.0000 -0.0000 0.0000 -0.0000 -0.0000 4.2210 1.4401 -49.3582 -4.1607 0.0000 -0.0000 19.2829 -14.9124 42.7385 -29.6805 0.0000 -0.0000 4.2609 -4.8318 17.7139 -5.6212 0.0000 -0.0000 -1.2502 -4.6315 -21.0830 -4.6766 0.0000 -0.0000
 0.7135 -1.7330 23.6194 0.4688 -1.3048 179.0292 -3.2685 -6.3523 0.2337 -1.0222 -3.5078 -0.3523 7.4453 1.8555 11.8447 0.8619 8.5369 -1.1579 -8.8662 1.3132 -1.9939 2.4584 -0.6255 -13.1275 -0.6834 -0.5710 12.2499 -20.4430 -12.8099 3.3935 -0.0000 0.0001 87.6154 97.9469 71.2856 -28.8829 0.0000 -0.0000 -0.0000 -0.0000 -0.0000 0.0000 -1.0136 19.7262 1.7430 12.6840 48.3159 -8.1159 -0.0000 -0.0000 -18.0276 -3.4847 -21.0420 14.4309 -0.0000 0.0000 -0.0000 -0.0000 -0.0000 0.0000 4.1945 1.5255 -49.2512 -4.1707 0.0000 -0.0000 19.3390 -14.9188 42.8127 -29.6850 0.0000 -0.0000 4.3006 -4.7483 17.7515 -5.6366 0.0000 -0.0000 -1.2758 -4.6349 -20.9387 -4.6641 0.0000 -0.0000
 0.6977 -1.7266 23.6189 0.4407 -1.2757 178.8544 -3.4645 -6.3330 0.2121 -1.0787 -3.4920 -0.3640 7.6166 1.7409 11.6669 0.9620 8.4388 -1.1620 -8.9334 1.5335 -1.9693 2.5628 -0.5088 -13.1220 -0.6591 -0.5300 12.1709 -18.7724 -11.2195 3.5951 -0.0000 0.0001 88.2754 99.8238 70.4441 -28.6916 -0.0000 -0.0000 -0.0000 -0.0000 -0.0000 -0.0000 -1.0745 19.7510 1.9207 13.1531 48.6908 -8.3023 -0.0000 -0.0000 -17.8144 -3.4936 -21.1731 14.4274 -0.0000 0.0000 -0.0000 0.0000 -0.0000 0.0000 4.1632 1.6073 -49.1454 -4.1844 0.0000 -0.0000 19.3959 -14.9268 42.8783 -29.6899 0.0000 -0.0000 4.3387 -4.6639 17.7949 -5.6719 0.0000 -0.0000 -1.2901 -4.6396 -20.8104 -4.6526 0.0000 -0.0000
 0.6814 -1.7212 23.6184 0.4077 -1.2469 178.6900 -3.6579 -6.2903 0.1922 -1.1353 -3.4543 -0.3678 7.7832 1.5758 11.4551 1.0614 8.3259 -1.1601 -9.0078 1.7816 -1.9420 2.6721 -0.3738 -13.1220 -0.8238 -0.4839 12.0664 -17.4566 -10.2297 3.6108 -0.0000 0.0001 88.9695 99.5829 69.4378 -27.1903 -0.0000 -0.0000 -0.0000 -0.0000 -0.0000 -0.0000 -1.1579 19.8047 2.1189 13.5393 49.1303 -8.4123 -0.0000 -0.0000 -17.6443 -3.4963 -21.3177 14.4399 -0.0000 0.0000 -0.0000 0.0000 -0.0000 0.0000 4.1256 1.6880 -49.0405 -4.2003 0.0000 -0.0000 19.4530 -14.9366 42.9359 -29.6978 0.0000 -0.0000 4.3724 -4.5771 17.8435 -5.7222 0.0000 -0.0000 -1.2945 -4.6461 -20.6976 -4.6393 0.0000 -0.0000
 0.6654 -1.7166 23.6178 0.3808 -1.2243 178.5320 -3.8286 -6.2176 0.1835 -1.1880 -3.4344 -0.3851 7.9327 1.4106 11.2364 1.1483 8.1767 -1.1498 -9.0805 2.0731 -1.9162 2.7907 -0.2377 -13.1327 -1.1547 -0.4302 11.9293 -16.5581 -9.8908 3.4733 -0.0000 0.0001 89.6444 97.5519 68.3485 -24.7516 0.0000 0.0000 -0.0000 0.0000 0.0000 0.0000 -1.2620 19.8959 2.3420 13.8495 49.6182 -8.4640 -0.0000 -0.0000 -17.4988 -3.5156 -21.4731 14.4421 -0.0000 0.0000 -0.0000 0.0000 0.0000 0.0000 4.0940 1.7599 -48.9316 -4.2219 0.0000 -0.0000 19.5119 -14.9463 42.9852 -29.7031 0.0000 -0.0000 4.4145 -4.4949 17.8990 -5.7871 0.0000 -0.0000 -1.2904 -4.6529 -20.5973 -4.6281 0.0000 -0.0000
 0.6493 -1.7138 23.6174 0.3116 -1.2004 178.3752 -4.0276 -6.1365 0.1712 -1.2315 -3.3699 -0.3769 8.0673 1.1774 11.0095 1.2291 8.0294 -1.1324 -9.1521 2.3999 -1.8941 2.9127 -0.1058 -13.1555 -1.6432 -0.3788 11.7647 -16.1133 -10.2144 3.1811 -0.0000 0.0001 90.2687 94.2649 67.2119 -21.9310 -0.0000 0.0000 -0.0000 -0.0000 -0.0000 -0.0000 -1.3858 20.0182 2.5836 14.0469 50.1532 -8.4371 -0.0000 -0.0000 -17.3674 -3.5518 -21.6085 14.4443 0.0000 -0.0000 -0.0000 -0.0000 0.0000 -0.0000 4.0126 1.8326 -48.8203 -4.2393 0.0000 -0.0000 19.5701 -14.9534 43.0310 -29.7086 0.0000 -0.0000 4.4068 -4.4125 17.9600 -5.8515 0.0000 -0.0000 -1.2817 -4.6633 -20.5056 -4.6181 0.0000 -0.0000
 0.6339 -1.7115 23.6170 0.2779 -1.1833 178.2140 -4.1568 -6.0316 0.1737 -1.2714 -3.3336 -0.3828 8.1652 0.9605 10.8083 1.2988 7.8505 -1.1050 -9.2194 2.7723 -1.8701 3.0440 0.0171 -13.1971 -2.2679 -0.2927 11.5706 -16.1558 -11.2201 2.7260 -0.0000 0.0001 90.8208 90.0967 66.0604 -19.0649 -0.0000 -0.0000 -0.0000 -0.0000 -0.0000 0.0000 -1.5274 20.1590 2.8386 14.1182 50.7439 -8.3205 -0.0000 -0.0000 -17.2458 -3.6076 -21.7012 14.4578 0.0000 0.0000 0.0000 0.0000 0.0000 0.0000 3.9675 1.8953 -48.6966 -4.2637 0.0000 -0.0000 19.6313 -14.9602 43.0717 -29.7107 0.0000 -0.0000 4.4402 -4.3362 18.0266 -5.9281 0.0000 -0.0000 -1.2655 -4.6735 -20.4138 -4.6096 0.0000 -0.0000
 0.6191 -1.7105 23.6168 0.2305 -1.1685 178.0442 -4.2708 -5.9246 0.1805 -1.3024 -3.2898 -0.3832 8.2309 0.7310 10.6370 1.3605 7.6664 -1.0659 -9.2833 3.1848 -1.8456 3.1809 0.1213 -13.2554 -2.9713 -0.2091 11.3495 -16.7362 -12.7957 2.0985 -0.0000 0.0001 91.2904 85.3454 64.9176 -16.3687 -0.0000 -0.0000 0.0000 0.0000 0.0000 0.0000 -1.6772 20.3075 3.1054 14.0455 51.3848 -8.1233 -0.0000 -0.0000 -17.1139 -3.6967 -21.7362 14.4765 0.0000 -0.0000 0.0000 -0.0000 -0.0000 -0.0000 3.9026 1.9536 -48.5676 -4.2874 0.0000 -0.0000 19.6959 -14.9619 43.1167 -29.7111 0.0000 -0.0000 4.4562 -4.2645 18.0972 -6.0021 0.0000 -0.0000 -1.2469 -4.6863 -20.3183 -4.6037 0.0000 -0.0000
 0.6052 -1.7109 23.6168 0.1666 -1.1554 177.8635 -4.3750 -5.8209 0.1928 -1.3235 -3.2433 -0.3752 8.2680 0.4988 10.5019 1.4122 7.4833 -1.0232 -9.3399 3.6321 -1.8144 3.3204 0.2016 -13.3272 -3.7075 -0.1494 11.1109 -17.8899 -14.8192 1.2695 -0.0000 0.0001 91.6723 80.2430 63.8038 -13.9119 -0.0000 0.0000 0.0000 0.0000 -0.0000 -0.0000 -1.8403 20.4530 3.3693 13.7669 52.0828 -7.7718 -0.0000 -0.0000 -16.9783 -3.8052 -21.6918 14.5131 0.0000 0.0000 0.0000 -0.0000 0.0000 -0.0000 3.8141 2.0082 -48.4317 -4.3078 0.0000 -0.0000 19.7624 -14.9581 43.1658 -29.7091 0.0000 -0.0000 4.4506 -4.1982 18.1686 -6.0699 0.0000 -0.0000 -1.2267 -4.7018 -20.2140 -4.5987 0.0000 -0.0000
 0.5923 -1.7123 23.6169 0.1041 -1.1455 177.6717 -4.4489 -5.7238 0.2100 -1.3385 -3.2082 -0.3685 8.2763 0.2834 10.4140 1.4544 7.2990 -0.9755 -9.3881 4.1199 -1.7708 3.4606 0.2495 -13.4075 -4.4500 -0.0912 10.8699 -19.6411 -17.1977 0.1658 -0.0000 0.0001 91.9696 75.0082 62.7383 -11.6683 0.0000 -0.0000 -0.0000 -0.0000 -0.0000 -0.0000 -1.9904 20.5859 3.6293 13.2810 52.8361 -7.3014 -0.0000 -0.0000 -16.8148 -3.9500 -21.5683 14.5612 0.0000 -0.0000 -0.0000 0.0000 -0.0000 -0.0000 3.7217 2.0574 -48.2907 -4.3265 0.0000 -0.0000 19.8321 -14.9493 43.2212 -29.7050 0.0000 -0.0000 4.4442 -4.1381 18.2398 -6.1338 0.0000 -0.0000 -1.2053 -4.7193 -20.0991 -4.5947 0.0000 -0.0000
